# xmcd CD database file
#
# Track frame offsets:
#	150
#	23267
#	48700
#
# Disc length: 955 seconds
#
# Revision: 0
# Processed by: cddbd v1.5.1PL2 Copyright (c) Steve Scherf et al.
# Submitted via: CDex 1.51
#
DISCID=1903b903
DTITLE=郷ひろみ - Hallelujah, Burning Love
DYEAR=2000
DGENRE=Japanese Pop
TTITLE0=Hallelujah, Burning Love
TTITLE1=liar
TTITLE2=Hallelujah, Burning Love
EXTD=YEAR: 2000
EXTT0=
EXTT1=
EXTT2=
PLAYORDER=
